<svg xmlns="http://www.w3.org/2000/svg" viewBox="0 0 1024 1024" width="1024" height="1024">
    <rect width="1024" height="1024" fill="white"/>
    <path d="M 176.2 789.6 L 195.4 784.4 L 218.8 769.4 L 251.6 747.2 L 285.2 729.4 L 318.4 718.2 L 358.8 711.0 L 407.8 706.8 L 455.6 701.2 L 505.4 689.4 L 550.0 673.6 L 559.2 663.0 L 537.8 656.8 L 499.0 650.0 L 429.2 642.4 L 346.0 656.6 L 280.4 675.2 L 229.6 697.8 L 195.4 725.6 L 172.8 765.6 L 166.4 784.8 Z M 412.8 580.0 L 425.4 592.2 L 466.0 600.4 L 520.0 599.2 L 570.2 590.6 L 589.0 575.8 L 599.2 561.2 L 585.6 546.6 L 546.6 537.4 L 480.2 537.0 L 435.8 549.0 L 414.2 564.6 Z M 932.4 402.0 L 921.6 361.4 L 895.8 308.2 L 860.4 252.4 L 826.4 203.8 L 800.2 179.6 L 785.2 187.2 L 784.0 225.4 L 791.8 281.4 L 800.8 339.6 L 803.8 381.6 L 801.4 406.2 L 787.0 414.8 L 773.2 414.4 L 743.8 407.0 L 701.0 396.2 L 644.2 384.6 L 587.2 377.4 L 520.0 374.6 L 455.2 379.8 L 392.2 392.0 L 343.4 403.2 L 306.6 411.2 L 287.2 407.6 L 290.0 389.8 L 305.2 366.4 L 308.6 340.8 L 302.6 316.0 L 283.8 300.4 L 250.2 300.8 L 210.2 313.0 L 179.4 340.2 L 155.6 378.4 L 138.0 418.2 L 127.0 453.6 L 122.2 485.0 L 123.4 510.0 L 130.0 528.0 L 139.6 545.2 L 151.6 561.0 L 169.2 568.8 L 190.2 570.0 L 205.6 566.6 L 218.2 560.8 L 229.6 554.2 L 238.0 549.4 L 249.2 543.8 L 291.8 526.8 L 338.8 510.0 L 395.2 492.8 L 464.8 474.6 L 543.2 460.6 L 603.0 462.0 L 664.6 469.6 L 719.8 484.0 L 761.6 501.4 L 786.8 518.6 L 798.2 537.2 L 802.4 553.0 L 785.2 569.0 L 760.6 585.0 L 731.8 603.8 L 704.2 624.2 L 677.4 647.6 L 668.6 671.4 L 666.4 693.8 L 670.2 712.6 L 680.4 734.0 L 694.4 754.6 L 706.4 768.2 L 714.8 771.4 L 721.2 765.8 L 724.2 746.6 L 726.0 718.0 L 729.6 688.2 L 738.4 666.0 L 749.2 652.4 L 759.6 645.6 L 776.0 642.6 L 797.6 639.2 L 826.0 631.2 L 857.2 617.2 L 888.0 600.8 L 908.4 582.8 L 918.2 563.6 L 912.2 545.0 L 901.2 530.2 L 891.0 515.6 L 889.2 502.2 L 894.4 489.2 L 907.8 476.2 L 921.2 456.6 L 931.6 431.8 Z" fill="#000" fill-rule="evenodd"/>
    </svg>